<svg width="200" height="200" viewBox="0 0 200 200" xmlns="http://www.w3.org/2000/svg">
  <!-- Gradient Definitions -->
  <defs>
    <linearGradient id="mainGradient" x1="0%" y1="0%" x2="100%" y2="100%">
      <stop offset="0%" style="stop-color:#667eea;stop-opacity:1" />
      <stop offset="100%" style="stop-color:#764ba2;stop-opacity:1" />
    </linearGradient>
    <linearGradient id="accentGradient" x1="0%" y1="0%" x2="100%" y2="100%">
      <stop offset="0%" style="stop-color:#f093fb;stop-opacity:1" />
      <stop offset="100%" style="stop-color:#f5576c;stop-opacity:1" />
    </linearGradient>
    <filter id="shadow">
      <feDropShadow dx="0" dy="4" stdDeviation="8" flood-opacity="0.3"/>
    </filter>
  </defs>
  
  <!-- Background Circle -->
  <circle cx="100" cy="100" r="95" fill="url(#mainGradient)" filter="url(#shadow)"/>
  
  <!-- Soccer Ball Design -->
  <g transform="translate(100, 100)">
    <!-- Outer circle (ball) -->
    <circle cx="0" cy="0" r="60" fill="white" stroke="url(#accentGradient)" stroke-width="3"/>
    
    <!-- Pentagon pattern (classic soccer ball) -->
    <polygon points="0,-25 -23.8,-7.7 -14.7,20.2 14.7,20.2 23.8,-7.7" 
             fill="url(#mainGradient)" stroke="white" stroke-width="2"/>
    
    <!-- Hexagons -->
    <path d="M -23.8,-7.7 L -38,-25 L -50,-15 L -40,5" 
          fill="url(#accentGradient)" stroke="white" stroke-width="2" opacity="0.8"/>
    <path d="M 23.8,-7.7 L 38,-25 L 50,-15 L 40,5" 
          fill="url(#accentGradient)" stroke="white" stroke-width="2" opacity="0.8"/>
    <path d="M -14.7,20.2 L -30,35 L -15,50 L 5,42" 
          fill="url(#accentGradient)" stroke="white" stroke-width="2" opacity="0.8"/>
    <path d="M 14.7,20.2 L 30,35 L 15,50 L -5,42" 
          fill="url(#accentGradient)" stroke="white" stroke-width="2" opacity="0.8"/>
    
    <!-- AI Brain/Neural Network Symbol -->
    <g transform="translate(0, -15)" opacity="0.3">
      <circle cx="-15" cy="0" r="3" fill="white"/>
      <circle cx="15" cy="0" r="3" fill="white"/>
      <circle cx="0" cy="15" r="3" fill="white"/>
      <line x1="-15" y1="0" x2="15" y2="0" stroke="white" stroke-width="1.5"/>
      <line x1="-15" y1="0" x2="0" y2="15" stroke="white" stroke-width="1.5"/>
      <line x1="15" y1="0" x2="0" y2="15" stroke="white" stroke-width="1.5"/>
    </g>
  </g>
  
  <!-- Analytics Chart Icon (bottom right) -->
  <g transform="translate(145, 145)" opacity="0.9">
    <rect x="0" y="15" width="6" height="25" rx="2" fill="white"/>
    <rect x="10" y="10" width="6" height="30" rx="2" fill="white"/>
    <rect x="20" y="5" width="6" height="35" rx="2" fill="white"/>
    <polyline points="3,20 13,15 23,8" stroke="white" stroke-width="2" fill="none"/>
  </g>
</svg>
